<?xml version="1.0" standalone="no"?>
<!DOCTYPE svg PUBLIC "-//W3C//DTD SVG 20010904//EN"
 "http://www.w3.org/TR/2001/REC-SVG-20010904/DTD/svg10.dtd">
<svg version="1.0" xmlns="http://www.w3.org/2000/svg"
 width="626.000000pt" height="626.000000pt" viewBox="0 0 626.000000 626.000000"
 preserveAspectRatio="xMidYMid meet">

<g transform="translate(0.000000,626.000000) scale(0.100000,-0.100000)"
fill="#000000" stroke="none">
<path d="M2917 4942 l-217 -217 0 -1635 0 -1635 175 -175 175 -175 0 903 0
902 260 0 260 0 0 907 0 907 -218 218 -217 218 -218 -218z m255 -329 l38 -37
0 -653 0 -653 -80 0 -80 0 0 652 0 652 37 38 c20 21 39 38 42 38 3 0 22 -17
43 -37z"/>
<path d="M2264 4288 c-287 -290 -349 -367 -436 -543 -122 -243 -180 -544 -152
-782 l7 -53 248 0 249 0 0 -192 -1 -193 -29 55 c-16 30 -39 81 -51 113 l-21
57 -184 0 c-101 0 -184 -2 -184 -4 0 -2 9 -35 21 -72 56 -183 148 -358 262
-499 36 -44 174 -188 306 -320 l241 -240 0 828 0 827 -250 0 c-137 0 -250 3
-250 8 0 55 119 372 139 372 3 0 4 -49 3 -110 l-4 -110 181 0 181 0 0 565 c0
311 -1 565 -3 565 -2 0 -125 -123 -273 -272z"/>
<path d="M3730 4294 l0 -271 48 -33 c26 -19 77 -63 115 -99 l67 -64 1 -936 c0
-515 4 -958 7 -984 l7 -49 120 124 c67 67 144 151 173 186 l52 63 0 617 0 617
136 -135 136 -135 -7 70 c-19 186 -109 440 -216 605 -85 132 -164 221 -418
475 l-221 220 0 -271z"/>
</g>
</svg>
